<svg xmlns="http://www.w3.org/2000/svg" viewBox="0 0 512 512" role="img" aria-label="HumanOS bot logo">
  <defs>
    <linearGradient id="bg" x1="0" y1="0" x2="1" y2="1">
      <stop offset="0%" stop-color="#C3F8EA"/>
      <stop offset="55%" stop-color="#B2E4F1"/>
      <stop offset="100%" stop-color="#A1CBFC"/>
    </linearGradient>
  </defs>
  <rect width="512" height="512" rx="120" fill="url(#bg)"/>
  <g transform="translate(256 256)">
    <g fill="#1F5C5B">
      <rect x="-16" y="-210" width="32" height="56" rx="12"/>
      <rect x="-16" y="154" width="32" height="56" rx="12"/>
      <rect x="154" y="-16" width="56" height="32" rx="12"/>
      <rect x="-210" y="-16" width="56" height="32" rx="12"/>

      <g transform="rotate(45)">
        <rect x="-16" y="-210" width="32" height="56" rx="12"/>
        <rect x="-16" y="154" width="32" height="56" rx="12"/>
        <rect x="154" y="-16" width="56" height="32" rx="12"/>
        <rect x="-210" y="-16" width="56" height="32" rx="12"/>
      </g>
    </g>

    <circle r="142" fill="none" stroke="#1F5C5B" stroke-width="28"/>
    <circle r="24" cy="-76" fill="#C78A4A"/>

    <g stroke="#1F5C5B" stroke-linecap="round" fill="none">
      <line x1="0" y1="-44" x2="0" y2="74" stroke-width="26"/>
      <line x1="-88" y1="-10" x2="88" y2="-10" stroke-width="22"/>
      <line x1="-64" y1="148" x2="0" y2="74" stroke-width="22"/>
      <line x1="64" y1="148" x2="0" y2="74" stroke-width="22"/>
      <line x1="-74" y1="-92" x2="74" y2="138" stroke-width="10" opacity="0.24"/>
      <line x1="74" y1="-92" x2="-74" y2="138" stroke-width="10" opacity="0.24"/>
    </g>
  </g>
</svg>
